<?xml version="1.0" encoding="utf-8"?>
<!-- Generator: Adobe Illustrator 16.0.0, SVG Export Plug-In . SVG Version: 6.00 Build 0)  -->
<!DOCTYPE svg PUBLIC "-//W3C//DTD SVG 1.1//EN" "http://www.w3.org/Graphics/SVG/1.1/DTD/svg11.dtd">
<svg version="1.1" id="Layer_1" xmlns="http://www.w3.org/2000/svg" xmlns:xlink="http://www.w3.org/1999/xlink" x="0px" y="0px"
	 width="34px" height="34px" viewBox="0 0 34 34" enable-background="new 0 0 34 34" xml:space="preserve">
<g>
	<polygon fill="#FFFFFF" points="33.212,4.065 30.449,1.303 30.115,1.637 27.905,3.846 25.696,6.055 23.486,8.266 23.39,8.363 
		19.869,4.842 19.563,14.953 29.673,14.645 26.152,11.125 26.249,11.029 28.459,8.819 30.669,6.609 32.879,4.399 	"/>
	<polygon fill="#FFFFFF" points="4.032,6.609 6.242,8.818 8.452,11.028 8.548,11.125 5.028,14.645 15.139,14.952 14.832,4.842 
		11.311,8.362 11.214,8.266 9.005,6.056 6.795,3.846 4.586,1.636 4.251,1.303 1.489,4.065 1.822,4.399 	"/>
	<polygon fill="#FFFFFF" points="23.39,25.966 23.486,26.062 25.696,28.271 27.906,30.481 30.116,32.692 30.45,33.025 
		33.212,30.263 32.878,29.929 30.669,27.72 28.46,25.509 26.249,23.3 26.152,23.203 29.673,19.683 19.563,19.376 19.87,29.485 	"/>
	<polygon fill="#FFFFFF" points="4.586,32.692 6.795,30.481 9.005,28.271 11.214,26.062 11.311,25.964 14.832,29.485 15.139,19.376 
		5.028,19.683 8.549,23.203 8.452,23.3 6.242,25.509 4.032,27.72 1.822,29.929 1.489,30.263 4.251,33.025 	"/>
</g>
</svg>
