<?xml version="1.0" encoding="utf-8"?>
<!-- Generator: Adobe Illustrator 16.0.0, SVG Export Plug-In . SVG Version: 6.00 Build 0)  -->
<!DOCTYPE svg PUBLIC "-//W3C//DTD SVG 1.1//EN" "http://www.w3.org/Graphics/SVG/1.1/DTD/svg11.dtd">
<svg version="1.1" id="Layer_1" xmlns="http://www.w3.org/2000/svg" xmlns:xlink="http://www.w3.org/1999/xlink" x="0px" y="0px"
	 width="22.102px" height="36.835px" viewBox="0 0 22.102 36.835" enable-background="new 0 0 22.102 36.835" xml:space="preserve">
<g>
	<path fill="#FFFFFF" d="M19.155,13.998v5.157c0,3.594-3.036,6.63-6.631,6.63l0,0H9.577c-3.594,0-6.63-3.036-6.63-6.63v-5.157H0
		v5.157c0,5.191,4.386,9.577,9.577,9.577v5.157H3.315v2.946h15.471v-2.946h-6.262v-5.157l0,0c5.191,0,9.578-4.386,9.578-9.577
		v-5.157H19.155z"/>
	<path fill="#FFFFFF" d="M9.577,23.575h2.947c2.105,0,3.975-1.651,4.348-3.683h-4.378v-1.474h4.45v-1.474h-4.45v-1.473h4.45v-1.474
		h-4.45v-1.473h4.45v-1.474h-4.45V9.577h4.45V8.104h-4.45V6.63h4.45V5.157h-4.45V3.684h4.378C16.499,1.651,14.629,0,12.524,0H9.577
		c-2.355,0-4.42,2.065-4.42,4.42v14.734C5.157,21.509,7.222,23.575,9.577,23.575z"/>
</g>
</svg>
