<?xml version="1.0" encoding="utf-8"?>
<!-- Generator: Adobe Illustrator 16.0.0, SVG Export Plug-In . SVG Version: 6.00 Build 0)  -->
<!DOCTYPE svg PUBLIC "-//W3C//DTD SVG 1.1//EN" "http://www.w3.org/Graphics/SVG/1.1/DTD/svg11.dtd">
<svg version="1.1" id="Layer_1" xmlns="http://www.w3.org/2000/svg" xmlns:xlink="http://www.w3.org/1999/xlink" x="0px" y="0px"
	 width="32.859px" height="36.688px" viewBox="0 0 32.859 36.688" enable-background="new 0 0 32.859 36.688" xml:space="preserve">
<g>
	<g>
		<path fill="#00EDFF" d="M16.43,16.61c0.901,0,1.63-0.73,1.63-1.63V1.63C18.06,0.73,17.331,0,16.43,0c-0.9,0-1.631,0.73-1.631,1.63
			v13.35C14.799,15.88,15.53,16.61,16.43,16.61z"/>
	</g>
	<g>
		<path fill="#00EDFF" d="M25.878,6.829c-0.735-0.52-1.754-0.343-2.272,0.395C23.088,7.958,23.264,8.976,24,9.494
			c3.506,2.47,5.6,6.493,5.6,10.763c0,7.263-5.908,13.169-13.17,13.169c-7.261,0-13.168-5.906-13.168-13.169
			c0-4.269,2.092-8.292,5.599-10.763c0.736-0.519,0.912-1.536,0.394-2.271C8.735,6.485,7.718,6.31,6.981,6.829
			C2.61,9.909,0,14.929,0,20.257c0,9.06,7.37,16.431,16.43,16.431c9.062,0,16.431-7.371,16.431-16.431
			C32.86,14.929,30.25,9.909,25.878,6.829z"/>
	</g>
</g>
</svg>
