<?xml version="1.0" encoding="utf-8"?>
<!-- Generator: Adobe Illustrator 16.0.0, SVG Export Plug-In . SVG Version: 6.00 Build 0)  -->
<!DOCTYPE svg PUBLIC "-//W3C//DTD SVG 1.1//EN" "http://www.w3.org/Graphics/SVG/1.1/DTD/svg11.dtd">
<svg version="1.1" id="Layer_1" xmlns="http://www.w3.org/2000/svg" xmlns:xlink="http://www.w3.org/1999/xlink" x="0px" y="0px"
	 width="32px" height="24px" viewBox="0 4 32 24" enable-background="new 0 4 32 24" xml:space="preserve">
<g transform="translate(96 0)">
	<path fill="#FFFFFF" d="M-68.072,13.055C-68.023,12.707-68,12.354-68,12c0-4.41-3.589-8-8-8c-2.561,0-4.908,1.208-6.396,3.189
		C-82.919,7.063-83.455,7-84,7c-3.859,0-7,3.141-7,7c0,0.098,0.002,0.191,0.006,0.288C-93.888,15.146-96,17.832-96,21
		c0,3.857,3.141,7,7,7h17c4.411,0,8-3.588,8-8C-64,17.083-65.604,14.449-68.072,13.055z M-72,26h-17.001c-2.762,0-5-2.238-5-5
		c0-2.764,2.238-5,5-5c0.152,0,0.298,0.031,0.445,0.045c-0.281-0.625-0.445-1.314-0.445-2.045c0-2.763,2.238-5,5-5
		c0.902,0,1.738,0.258,2.47,0.675C-80.626,7.516-78.49,6-76.001,6C-72.688,6-70,8.686-70,12c0,0.788-0.162,1.538-0.439,2.229
		c2.555,0.69,4.439,3,4.439,5.771C-66,23.313-68.686,26-72,26z"/>
	<path fill="#FFFFFF" d="M-86.001,18h4v6h4v-6h4l-6-6L-86.001,18z"/>
</g>
</svg>
